<svg width="16" height="16" viewBox="0 0 16 16" fill="none" xmlns="http://www.w3.org/2000/svg">
<g id="location-fill">
<path id="Icon" fill-rule="evenodd" clip-rule="evenodd" d="M8 1.33334C10.9455 1.33334 13.3333 3.72116 13.3333 6.66668C13.3333 8.6159 11.7027 11.1783 8.47585 14.4669C8.21452 14.7333 7.78548 14.7333 7.52414 14.4669L7.22165 14.1559C4.19538 11.0162 2.66666 8.55402 2.66666 6.66668C2.66666 3.72116 5.05448 1.33334 8 1.33334ZM9.66666 6.00001C9.66666 5.07954 8.92047 4.33334 8 4.33334C7.07952 4.33334 6.33333 5.07954 6.33333 6.00001C6.33333 6.92048 7.07952 7.66668 8 7.66668C8.92047 7.66668 9.66666 6.92048 9.66666 6.00001Z" fill="#F66363"/>
</g>
</svg>
