<svg width="16" height="16" viewBox="0 0 16 16" fill="none" xmlns="http://www.w3.org/2000/svg">
<g id="location">
<path id="path" d="M13 8C13 10.7614 10.7614 13 8 13C5.23858 13 3 10.7614 3 8C3 5.23858 5.23858 3 8 3C10.7614 3 13 5.23858 13 8Z" stroke="#868798" stroke-width="2"/>
<path id="Vector 381" d="M13 8L15 8" stroke="#868798" stroke-width="2" stroke-linecap="round" stroke-linejoin="round"/>
<path id="Vector 382" d="M1 8L3 8" stroke="#868798" stroke-width="2" stroke-linecap="round" stroke-linejoin="round"/>
<path id="Vector 383" d="M8 13L8 15" stroke="#868798" stroke-width="2" stroke-linecap="round" stroke-linejoin="round"/>
<path id="Vector 384" d="M8 1L8 3" stroke="#868798" stroke-width="2" stroke-linecap="round" stroke-linejoin="round"/>
<path id="path_2" d="M10 8C10 9.10457 9.10457 10 8 10C6.89543 10 6 9.10457 6 8C6 6.89543 6.89543 6 8 6C9.10457 6 10 6.89543 10 8Z" stroke="#868798" stroke-width="2"/>
</g>
</svg>
