<svg width="20" height="20" viewBox="0 0 20 20" fill="none" xmlns="http://www.w3.org/2000/svg">
<g id="majesticons:bath-shower">
<g id="Group">
<path id="Vector" d="M16.6667 11.6667V10H3.33334V11.6667C3.33334 12.615 3.81917 14.3733 5.62084 14.8675C5.92917 14.9525 6.27667 15 6.66667 15H13.3333C13.6863 15.0031 14.0381 14.9585 14.3792 14.8675C16.1808 14.3733 16.6667 12.615 16.6667 11.6667Z" fill="#282E3C"/>
<path id="Vector_2" d="M2.5 9.99998H3.33333M3.33333 9.99998H16.6667M3.33333 9.99998V11.6666C3.33333 12.615 3.81917 14.3733 5.62083 14.8675M16.6667 9.99998C16.8877 9.99998 17.0996 9.91218 17.2559 9.7559C17.4122 9.59962 17.5 9.38766 17.5 9.16665V5.83331C17.5 4.99998 17 3.33331 15 3.33331C13 3.33331 12.5 4.99998 12.5 5.83331M16.6667 9.99998V11.6666C16.6667 12.615 16.1808 14.3733 14.3792 14.8675M12.5 5.83331H10.8333M12.5 5.83331H14.1667M14.3792 14.8675C14.0381 14.9585 13.6863 15.003 13.3333 15H6.66667C6.27667 15 5.92917 14.9525 5.62083 14.8675M14.3792 14.8675L15 16.6666M5.62083 14.8675L5 16.6666" stroke="#282E3C" stroke-width="2" stroke-linecap="round" stroke-linejoin="round"/>
</g>
</g>
</svg>
