<svg width="20" height="20" viewBox="0 0 20 20" fill="none" xmlns="http://www.w3.org/2000/svg">
<g id="mingcute:bed-fill" clip-path="url(#clip0_166_22)">
<g id="Group">
<path id="Vector" fill-rule="evenodd" clip-rule="evenodd" d="M2.5 4.16669C2.70411 4.16671 2.90111 4.24165 3.05364 4.37728C3.20617 4.51292 3.30362 4.69981 3.3275 4.90252L3.33333 5.00002V10.8334H9.16667V6.66669C9.16669 6.46258 9.24163 6.26557 9.37726 6.11304C9.5129 5.96051 9.69979 5.86307 9.9025 5.83919L10 5.83335H15.8333C16.471 5.83332 17.0846 6.07696 17.5485 6.51442C18.0125 6.95189 18.2918 7.55011 18.3292 8.18669L18.3333 8.33335V15C18.3331 15.2124 18.2518 15.4167 18.106 15.5712C17.9602 15.7256 17.7609 15.8185 17.5488 15.831C17.3368 15.8434 17.128 15.7745 16.9651 15.6381C16.8023 15.5018 16.6976 15.3084 16.6725 15.0975L16.6667 15V12.5H3.33333V15C3.3331 15.2124 3.25177 15.4167 3.10596 15.5712C2.96015 15.7256 2.76087 15.8185 2.54884 15.831C2.3368 15.8434 2.12802 15.7745 1.96514 15.6381C1.80226 15.5018 1.69759 15.3084 1.6725 15.0975L1.66667 15V5.00002C1.66667 4.77901 1.75446 4.56705 1.91074 4.41076C2.06702 4.25448 2.27899 4.16669 2.5 4.16669ZM6.25 5.83335C6.80253 5.83335 7.33244 6.05285 7.72314 6.44355C8.11384 6.83425 8.33333 7.36415 8.33333 7.91669C8.33333 8.46922 8.11384 8.99913 7.72314 9.38983C7.33244 9.78053 6.80253 10 6.25 10C5.69747 10 5.16756 9.78053 4.77686 9.38983C4.38616 8.99913 4.16667 8.46922 4.16667 7.91669C4.16667 7.36415 4.38616 6.83425 4.77686 6.44355C5.16756 6.05285 5.69747 5.83335 6.25 5.83335Z" fill="#282E3C"/>
</g>
</g>
<defs>
<clipPath id="clip0_166_22">
<rect width="20" height="20" fill="white"/>
</clipPath>
</defs>
</svg>
